# xmcd
#
# Track frame offsets:
#	150
#	7083
#	10622
#	16082
#	18246
#	26968
#	40874
#	46093
#	50488
#	52512
#	58362
#	60382
#	69444
#	86202
#	92401
#	101815
#	107555
#	130246
#	147646
#	151660
#	159154
#	162809
#	167571
#	169640
#	182014
#	198833
#	204661
#	209902
#	212091
#	218033
#	219908
#	232891
#	248799
#	254108
#	262175
#	266195
#	287179
#	313214
#	316191
#
# Disc length: 4335 seconds
#
# Revision: 1
# Processed by: cddbd v1.5.1PL0 Copyright (c) Steve Scherf et al.
# Submitted via: CDex 1.50Beta5
#
DISCID=2c10ed27
DTITLE=田中宏昌 - ビジネス英会話2003-12-A
DYEAR=2003
DGENRE=Books
TTITLE0=Introduction
TTITLE1=Information About Target Partners: Problem
TTITLE2=Information About Target Partners: Problem
TTITLE3=Information About Target Partners: Problem
TTITLE4=Information About Target Partners: Problem
TTITLE5=Information About Target Partners: Problem
TTITLE6=Information About Target Partners: Problem
TTITLE7=Information About Target Partners: Problem
TTITLE8=Information About Target Partners: Solution
TTITLE9=Information About Target Partners: Solution
TTITLE10=Information About Target Partners: Solution
TTITLE11=Information About Target Partners: Solution
TTITLE12=Information About Target Partners: Solution
TTITLE13=Information About Target Partners: Solution
TTITLE14=Information About Target Partners: Solution
TTITLE15=Dr. Tobin's Interview Part 1
TTITLE16=Dr. Tobin's Interview Part 1
TTITLE17=Dr. Tobin's Interview Part 1
TTITLE18=Dr. Tobin's Interview Part 1
TTITLE19=Dr. Tobin's Interview Part 1
TTITLE20=Capital Structure: Problem
TTITLE21=Capital Structure: Problem
TTITLE22=Capital Structure: Problem
TTITLE23=Capital Structure: Problem
TTITLE24=Capital Structure: Problem
TTITLE25=Capital Structure: Problem
TTITLE26=Capital Structure: Problem
TTITLE27=Capital Structure: Solution
TTITLE28=Capital Structure: Solution
TTITLE29=Capital Structure: Solution
TTITLE30=Capital Structure: Solution
TTITLE31=Capital Structure: Solution
TTITLE32=Capital Structure: Solution
TTITLE33=Capital Structure: Solution
TTITLE34=Dr. Tobin's Interview Part 2
TTITLE35=Dr. Tobin's Interview Part 2
TTITLE36=Dr. Tobin's Interview Part 2
TTITLE37=Dr. Tobin's Interview Part 2
TTITLE38=Dr. Tobin's Interview Part 2
EXTD=
EXTT0=
EXTT1=
EXTT2=
EXTT3=
EXTT4=
EXTT5=
EXTT6=
EXTT7=
EXTT8=
EXTT9=
EXTT10=
EXTT11=
EXTT12=
EXTT13=
EXTT14=
EXTT15=
EXTT16=
EXTT17=
EXTT18=
EXTT19=
EXTT20=
EXTT21=
EXTT22=
EXTT23=
EXTT24=
EXTT25=
EXTT26=
EXTT27=
EXTT28=
EXTT29=
EXTT30=
EXTT31=
EXTT32=
EXTT33=
EXTT34=
EXTT35=
EXTT36=
EXTT37=
EXTT38=
PLAYORDER=
